<svg width="30" height="30" viewBox="0 0 30 30" fill="none" xmlns="http://www.w3.org/2000/svg">
<path d="M15 28.3333C12.7899 28.3333 10.6702 27.4553 9.10744 25.8925C7.54464 24.3297 6.66666 22.2101 6.66666 20V9.99999C6.66666 7.78985 7.54464 5.67024 9.10744 4.10743C10.6702 2.54463 12.7899 1.66666 15 1.66666C17.2101 1.66666 19.3298 2.54463 20.8926 4.10743C22.4554 5.67024 23.3333 7.78985 23.3333 9.99999V20C23.3333 21.0943 23.1178 22.178 22.699 23.189C22.2802 24.2001 21.6664 25.1187 20.8926 25.8925C20.1187 26.6664 19.2001 27.2802 18.189 27.699C17.178 28.1178 16.0943 28.3333 15 28.3333ZM15 3.33332C13.2319 3.33332 11.5362 4.0357 10.286 5.28594C9.03571 6.53619 8.33333 8.23188 8.33333 9.99999V20C8.33333 21.7681 9.03571 23.4638 10.286 24.714C11.5362 25.9643 13.2319 26.6667 15 26.6667C16.7681 26.6667 18.4638 25.9643 19.714 24.714C20.9643 23.4638 21.6667 21.7681 21.6667 20V9.99999C21.6667 8.23188 20.9643 6.53619 19.714 5.28594C18.4638 4.0357 16.7681 3.33332 15 3.33332Z" fill="white"/>
<path id="wheel" d="M15 12.5C14.779 12.5 14.567 12.4122 14.4107 12.2559C14.2545 12.0996 14.1667 11.8877 14.1667 11.6667V8.33333C14.1667 8.11232 14.2545 7.90036 14.4107 7.74408C14.567 7.5878 14.779 7.5 15 7.5C15.221 7.5 15.433 7.5878 15.5893 7.74408C15.7455 7.90036 15.8333 8.11232 15.8333 8.33333V11.6667C15.8333 11.8877 15.7455 12.0996 15.5893 12.2559C15.433 12.4122 15.221 12.5 15 12.5Z" fill="white"/>
</svg>
