<svg width="21" height="25" viewBox="0 0 21 25" fill="none" xmlns="http://www.w3.org/2000/svg">
<title>TikTok icon</title>
<path d="M21 10.2495C18.9363 10.2547 16.9233 9.58425 15.2452 8.33301V17.0596C15.2446 18.6758 14.7703 20.2534 13.8858 21.5813C13.0013 22.9092 11.7487 23.9242 10.2954 24.4905C8.84221 25.0568 7.25762 25.1475 5.75358 24.7504C4.24954 24.3533 2.89772 23.4873 1.87889 22.2683C0.86006 21.0493 0.22278 19.5354 0.0522624 17.9289C-0.118255 16.3225 0.186117 14.7 0.924681 13.2786C1.66325 11.8572 2.8008 10.7046 4.18523 9.97479C5.56966 9.24501 7.13498 8.97289 8.67189 9.19482V13.584C7.9686 13.3535 7.21339 13.3605 6.51411 13.6038C5.81483 13.8471 5.20725 14.3144 4.77812 14.9389C4.34899 15.5634 4.12027 16.3131 4.12461 17.0811C4.12895 17.8491 4.36614 18.596 4.8023 19.2152C5.23846 19.8343 5.85129 20.2941 6.55327 20.5288C7.25525 20.7636 8.01049 20.7613 8.71112 20.5222C9.41176 20.2832 10.022 19.8196 10.4546 19.1978C10.8872 18.5759 11.1202 17.8276 11.1202 17.0596V0H15.2452C15.2423 0.362861 15.2715 0.725228 15.3324 1.08252C15.4757 1.88012 15.7737 2.63887 16.2082 3.31237C16.6427 3.98587 17.2046 4.55995 17.8594 4.99951C18.791 5.64116 19.8832 5.98315 21 5.98291V10.2495Z" fill="white"/>
</svg>
