<svg width="20" height="20" viewBox="0 0 20 20" fill="none" xmlns="http://www.w3.org/2000/svg">
<path d="M2.72096 2.05103L18.076 9.61703C18.1597 9.65829 18.2302 9.72217 18.2795 9.80143C18.3288 9.8807 18.3549 9.97218 18.3549 10.0655C18.3549 10.1589 18.3288 10.2504 18.2795 10.3296C18.2302 10.4089 18.1597 10.4728 18.076 10.514L2.71996 18.08C2.63393 18.1223 2.53757 18.1389 2.44235 18.128C2.34713 18.117 2.25707 18.0789 2.18288 18.0182C2.1087 17.9575 2.05353 17.8768 2.02393 17.7856C1.99434 17.6945 1.99157 17.5967 2.01596 17.504L3.98496 10.07L2.01496 2.62803C1.99017 2.53514 1.99268 2.43708 2.02219 2.34558C2.05171 2.25409 2.10697 2.17304 2.18137 2.11215C2.25576 2.05127 2.34614 2.01312 2.44166 2.00227C2.53719 1.99143 2.63381 2.00836 2.71996 2.05103H2.72096ZM3.26396 3.43403L4.87396 9.51603L4.93596 9.50403L4.99996 9.50003H12C12.1249 9.4998 12.2454 9.54636 12.3377 9.63054C12.4301 9.71472 12.4875 9.83041 12.4988 9.95485C12.5101 10.0793 12.4744 10.2034 12.3987 10.3029C12.3231 10.4023 12.2129 10.4698 12.09 10.492L12 10.5H4.99996C4.96911 10.5002 4.93832 10.4975 4.90796 10.492L3.26496 16.698L16.723 10.066L3.26396 3.43403V3.43403Z" fill="black"/>
</svg>
