<svg width="24" height="24" viewBox="0 0 24 24" fill="none" xmlns="http://www.w3.org/2000/svg">
<path d="M22.706 5.18952C21.871 5.55952 20.974 5.80952 20.031 5.92252C21.004 5.34031 21.7319 4.42398 22.079 3.34452C21.1648 3.88751 20.1643 4.26971 19.121 4.47452C18.4194 3.72538 17.4901 3.22884 16.4773 3.06199C15.4646 2.89514 14.4251 3.06731 13.5202 3.55177C12.6154 4.03623 11.8958 4.80588 11.4732 5.74122C11.0505 6.67656 10.9485 7.72527 11.183 8.72452C9.33069 8.63151 7.51863 8.15007 5.86442 7.31142C4.21022 6.47278 2.75084 5.29568 1.581 3.85652C1.181 4.54652 0.951 5.34652 0.951 6.19852C0.950554 6.96551 1.13943 7.72076 1.50088 8.39725C1.86232 9.07374 2.38516 9.65056 3.023 10.0765C2.28328 10.053 1.55987 9.8531 0.913 9.49352V9.55352C0.912925 10.6293 1.28503 11.6719 1.96618 12.5045C2.64733 13.3371 3.59557 13.9084 4.65 14.1215C3.96378 14.3072 3.24434 14.3346 2.546 14.2015C2.8435 15.1271 3.423 15.9365 4.20337 16.5164C4.98374 17.0963 5.92592 17.4177 6.898 17.4355C5.24783 18.7309 3.20989 19.4336 1.112 19.4305C0.740381 19.4306 0.369076 19.4089 0 19.3655C2.12948 20.7347 4.60834 21.4613 7.14 21.4585C15.71 21.4585 20.395 14.3605 20.395 8.20452C20.395 8.00452 20.39 7.80252 20.381 7.60252C21.2923 6.94349 22.0789 6.12741 22.704 5.19252L22.706 5.18952Z" fill="white"/>
</svg>
