<svg width="24" height="24" viewBox="0 0 24 24" fill="none" xmlns="http://www.w3.org/2000/svg">
<g clip-path="url(#clip0_6_10)">
<path d="M23.5 6.507C23.3641 6.02223 23.0994 5.58335 22.734 5.237C22.3583 4.88 21.8978 4.62464 21.396 4.495C19.518 4 11.994 4 11.994 4C8.85734 3.96431 5.72144 4.12127 2.60401 4.47C2.1022 4.60921 1.64257 4.87029 1.26601 5.23C0.896007 5.586 0.628007 6.025 0.488007 6.506C0.1517 8.31774 -0.0117011 10.1573 6.83166e-06 12C-0.0119932 13.841 0.151007 15.68 0.488007 17.494C0.625007 17.973 0.892007 18.41 1.26301 18.763C1.63401 19.116 2.09601 19.371 2.60401 19.506C4.50701 20 11.994 20 11.994 20C15.1347 20.0357 18.2746 19.8788 21.396 19.53C21.8978 19.4004 22.3583 19.145 22.734 18.788C23.104 18.435 23.367 17.996 23.499 17.518C23.8441 15.707 24.0119 13.8666 24 12.023C24.026 10.1716 23.8584 8.32256 23.5 6.506V6.507ZM9.60201 15.424V8.577L15.862 12.001L9.60201 15.424Z" fill="white"/>
</g>
<defs>
<clipPath id="clip0_6_10">
<rect width="24" height="24" fill="white"/>
</clipPath>
</defs>
</svg>
