<svg width="24" height="24" viewBox="0 0 24 24" fill="none" xmlns="http://www.w3.org/2000/svg">
<path d="M21 12C21 7.03125 16.9688 3 12 3C7.03125 3 3 7.03125 3 12C3 16.9688 7.03125 21 12 21C16.9688 21 21 16.9688 21 12Z" stroke="black" stroke-width="1.5" stroke-miterlimit="10"/>
<path id='arrow' d="M16.4376 7.07483L10.9439 9.27233C10.5666 9.42322 10.2239 9.64919 9.93653 9.93653C9.64919 10.2239 9.42322 10.5666 9.27233 10.9439L7.07483 16.4376C7.04755 16.5058 7.04087 16.5804 7.05562 16.6524C7.07037 16.7243 7.1059 16.7903 7.15781 16.8422C7.20971 16.8941 7.27571 16.9296 7.34762 16.9443C7.41953 16.9591 7.49418 16.9524 7.56233 16.9251L13.0561 14.7276C13.4334 14.5768 13.7761 14.3508 14.0634 14.0634C14.3508 13.7761 14.5768 13.4334 14.7276 13.0561L16.9251 7.56233C16.9524 7.49418 16.9591 7.41953 16.9443 7.34762C16.9296 7.27571 16.8941 7.20971 16.8422 7.15781C16.7903 7.1059 16.7243 7.07037 16.6524 7.05562C16.5804 7.04087 16.5058 7.04755 16.4376 7.07483V7.07483ZM12 13.125C11.7775 13.125 11.56 13.059 11.375 12.9354C11.19 12.8118 11.0458 12.6361 10.9606 12.4305C10.8755 12.2249 10.8532 11.9987 10.8966 11.7805C10.94 11.5623 11.0472 11.3618 11.2045 11.2045C11.3618 11.0472 11.5623 10.94 11.7805 10.8966C11.9987 10.8532 12.2249 10.8755 12.4305 10.9606C12.6361 11.0458 12.8118 11.19 12.9354 11.375C13.059 11.56 13.125 11.7775 13.125 12C13.125 12.2984 13.0065 12.5845 12.7955 12.7955C12.5845 13.0065 12.2984 13.125 12 13.125Z" fill="black"/>
</svg>
