<svg width="127" height="25" viewBox="0 0 127 25" fill="none" xmlns="http://www.w3.org/2000/svg">
<path d="M1.648 1.456H4.336V0.279999H0.4V24.28H4.336V23.104H1.648V1.456ZM15.3756 13.36H23.9916L23.5596 12.112H15.8076L15.3756 13.36ZM19.6476 4.6L22.9596 12.616L23.0796 12.928L25.5756 19H27.0636L19.6476 1.552L12.2316 19H13.7196L16.2396 12.832L16.3836 12.544L19.6476 4.6ZM37.6367 23.104H34.9488V24.28H38.8848V0.279999H34.9488V1.456H37.6367V23.104ZM46.1611 10.984L51.7291 19H53.3611L47.6251 10.984H46.1611ZM43.3051 2.2V19H44.6251V2.2H43.3051ZM44.0011 3.376H47.1451C47.9931 3.376 48.7451 3.52 49.4011 3.808C50.0571 4.096 50.5691 4.512 50.9371 5.056C51.3211 5.6 51.5131 6.272 51.5131 7.072C51.5131 7.872 51.3291 8.552 50.9611 9.112C50.5931 9.656 50.0731 10.072 49.4011 10.36C48.7451 10.632 47.9931 10.768 47.1451 10.768H44.0011V11.944H47.1451C48.2331 11.944 49.2011 11.76 50.0491 11.392C50.9131 11.008 51.5931 10.448 52.0891 9.712C52.5851 8.976 52.8331 8.096 52.8331 7.072C52.8331 6.032 52.5851 5.152 52.0891 4.432C51.5931 3.712 50.9131 3.16 50.0491 2.776C49.2011 2.392 48.2331 2.2 47.1451 2.2H44.0011V3.376ZM54.1876 3.448H58.6036V19H59.9236V3.448H64.3396V2.2H54.1876V3.448ZM67.3917 19H75.7197V17.752H67.3917V19ZM67.3917 3.448H75.7197V2.2H67.3917V3.448ZM67.3917 10.408H75.2397V9.16H67.3917V10.408ZM66.6957 2.2V19H68.0157V2.2H66.6957ZM81.412 5.704L87.316 17.056L93.22 5.704L94.66 19H95.98L94.036 1.552L87.316 14.464L80.596 1.552L78.652 19H79.972L81.412 5.704ZM99.1086 2.2V19H100.429V2.2H99.1086ZM107.389 2.2L100.045 10.096L107.749 19H109.429L101.677 10.072L109.069 2.2H107.389ZM110.909 10.6C110.909 9.192 111.205 7.944 111.797 6.856C112.405 5.752 113.229 4.888 114.269 4.264C115.325 3.624 116.525 3.304 117.869 3.304C119.213 3.304 120.405 3.624 121.445 4.264C122.501 4.888 123.325 5.752 123.917 6.856C124.509 7.944 124.805 9.192 124.805 10.6C124.805 11.992 124.509 13.24 123.917 14.344C123.325 15.448 122.501 16.32 121.445 16.96C120.405 17.584 119.213 17.896 117.869 17.896C116.525 17.896 115.325 17.584 114.269 16.96C113.229 16.32 112.405 15.448 111.797 14.344C111.205 13.24 110.909 11.992 110.909 10.6ZM109.517 10.6C109.517 11.832 109.725 12.976 110.141 14.032C110.557 15.072 111.141 15.984 111.893 16.768C112.645 17.536 113.525 18.136 114.533 18.568C115.557 19 116.669 19.216 117.869 19.216C119.069 19.216 120.173 19 121.181 18.568C122.205 18.136 123.093 17.536 123.845 16.768C124.597 15.984 125.181 15.072 125.597 14.032C126.013 12.976 126.221 11.832 126.221 10.6C126.221 9.368 126.013 8.232 125.597 7.192C125.181 6.136 124.597 5.224 123.845 4.456C123.093 3.672 122.205 3.064 121.181 2.632C120.173 2.2 119.069 1.984 117.869 1.984C116.669 1.984 115.557 2.2 114.533 2.632C113.525 3.064 112.645 3.672 111.893 4.456C111.141 5.224 110.557 6.136 110.141 7.192C109.725 8.232 109.517 9.368 109.517 10.6Z" fill="white"/>
</svg>
